<?xml version="1.0" encoding="UTF-8" standalone="no"?>

<svg width="100%" height="100%" viewBox="0 0 38 38" version="1.1"
    style="fill-rule:evenodd;clip-rule:evenodd;stroke-linejoin:round;stroke-miterlimit:2;">
    <path id="Cloudy"
        d="M7.426,31.754c-4.099,0 -7.426,-3.327 -7.426,-7.425c0,-4.099 3.327,-7.426 7.426,-7.426c0.027,0 0.053,0 0.08,0.001c-0.053,-0.43 -0.08,-0.867 -0.08,-1.311c-0,-5.601 4.369,-10.147 9.751,-10.147c4.095,-0 7.604,2.631 9.048,6.357c0.438,-0.064 0.886,-0.097 1.341,-0.097c5.317,0 9.634,4.492 9.634,10.024c-0,5.533 -4.317,10.024 -9.634,10.024c-0.214,0 -0.426,-0.007 -0.637,-0.021l0,0.021l-19.503,0Z"
        style="fill:#fff;" />
</svg>