<?xml version="1.0" encoding="UTF-8" standalone="no"?>

<svg width="100%" height="100%" viewBox="0 0 155 155" version="1.1"
    style="fill-rule:evenodd;clip-rule:evenodd;stroke-linecap:square;stroke-miterlimit:1.5;">
    <g id="Fog">
        <path d="M25.994,131.055l103.012,-0" style="fill:none;stroke:#fff;stroke-width:5px;" />
        <path d="M25.994,141.055l103.012,-0" style="fill:none;stroke:#fff;stroke-width:5px;" />
        <path id="Fog1" 
            d="M30.94,123.565c-17.076,-0 -30.94,-13.864 -30.94,-30.94c0,-17.077 13.864,-30.94 30.94,-30.94c0.112,-0 0.224,0 0.337,0.001c-0.223,-1.788 -0.337,-3.611 -0.337,-5.461c-0,-23.335 18.207,-42.28 40.632,-42.28c17.062,0 31.681,10.966 37.699,26.487c1.827,-0.265 3.692,-0.402 5.589,-0.402c22.154,-0 40.14,18.715 40.14,41.767c-0,23.052 -17.986,41.768 -40.14,41.768c-0.892,-0 -1.778,-0.031 -2.655,-0.091l-0,0.091l-81.265,-0Z"
            style="fill:#fff;" />
    </g>
</svg>