<?xml version="1.0" encoding="UTF-8" standalone="no"?>

<svg width="100%" height="100%" viewBox="0 0 38 38" version="1.1"
    style="fill-rule:evenodd;clip-rule:evenodd;stroke-linecap:round;stroke-miterlimit:1.5;">
    <g id="Rain">
        <path d="M5.254,35.474l2.662,-5.708" style="fill:none;stroke:#4493cd;stroke-width:1.2px;" />
        <path d="M10.951,35.474l2.661,-5.708" style="fill:none;stroke:#4493cd;stroke-width:1.2px;" />
        <path d="M16.647,35.474l2.662,-5.708" style="fill:none;stroke:#4493cd;stroke-width:1.2px;" />
        <path d="M22.344,35.474l2.662,-5.708" style="fill:none;stroke:#4493cd;stroke-width:1.2px;" />
        <path d="M28.041,35.474l2.661,-5.708" style="fill:none;stroke:#4493cd;stroke-width:1.2px;" />
        <path id="Fog"
            d="M7.426,28.035c-4.099,-0 -7.426,-3.328 -7.426,-7.426c0,-4.098 3.327,-7.426 7.426,-7.426c0.027,0 0.053,0 0.08,0.001c-0.053,-0.429 -0.08,-0.867 -0.08,-1.311c-0,-5.6 4.369,-10.147 9.751,-10.147c4.095,-0 7.604,2.632 9.048,6.357c0.438,-0.064 0.886,-0.097 1.341,-0.097c5.317,0 9.634,4.492 9.634,10.024c-0,5.533 -4.317,10.025 -9.634,10.025c-0.214,-0 -0.426,-0.008 -0.637,-0.022l0,0.022l-19.503,-0Z"
            style="fill:#fff;" />
    </g>
</svg>