<?xml version="1.0" encoding="UTF-8" standalone="no"?>

<svg width="100%" height="100%" viewBox="0 0 38 38" version="1.1"
    style="fill-rule:evenodd;clip-rule:evenodd;stroke-linecap:round;stroke-miterlimit:1.5;">
    <g id="Snow">
        <g>
            <g>
                <path d="M2.77,9.46l15.83,9.14" style="fill:none;stroke:#fff;stroke-width:1.2px;" />
                <path d="M1.987,15.405l7.567,-2.028"
                    style="fill:none;stroke:#fff;stroke-width:1.2px;" />
                <path d="M7.527,5.81l2.027,7.567" style="fill:none;stroke:#fff;stroke-width:1.2px;" />
            </g>
            <g>
                <path d="M34.43,27.74l-15.83,-9.14"
                    style="fill:none;stroke:#fff;stroke-width:1.2px;" />
                <path d="M35.213,21.795l-7.567,2.028"
                    style="fill:none;stroke:#fff;stroke-width:1.2px;" />
                <path d="M29.673,31.39l-2.027,-7.567"
                    style="fill:none;stroke:#fff;stroke-width:1.2px;" />
            </g>
        </g>
        <g>
            <g>
                <path d="M2.77,27.74l15.83,-9.14" style="fill:none;stroke:#fff;stroke-width:1.2px;" />
                <path d="M7.527,31.39l2.027,-7.567"
                    style="fill:none;stroke:#fff;stroke-width:1.2px;" />
                <path d="M1.987,21.795l7.567,2.028"
                    style="fill:none;stroke:#fff;stroke-width:1.2px;" />
            </g>
            <g>
                <path d="M34.43,9.46l-15.83,9.14" style="fill:none;stroke:#fff;stroke-width:1.2px;" />
                <path d="M29.673,5.81l-2.027,7.567"
                    style="fill:none;stroke:#fff;stroke-width:1.2px;" />
                <path d="M35.213,15.405l-7.567,-2.028"
                    style="fill:none;stroke:#fff;stroke-width:1.2px;" />
            </g>
        </g>
        <g>
            <g>
                <path d="M18.6,0.321l0,18.279" style="fill:none;stroke:#fff;stroke-width:1.2px;" />
                <path d="M13.061,2.615l5.539,5.54" style="fill:none;stroke:#fff;stroke-width:1.2px;" />
                <path d="M24.139,2.615l-5.539,5.54"
                    style="fill:none;stroke:#fff;stroke-width:1.2px;" />
            </g>
            <g>
                <path d="M18.6,36.879l0,-18.279" style="fill:none;stroke:#fff;stroke-width:1.2px;" />
                <path d="M24.139,34.585l-5.539,-5.54"
                    style="fill:none;stroke:#fff;stroke-width:1.2px;" />
                <path d="M13.061,34.585l5.539,-5.54"
                    style="fill:none;stroke:#fff;stroke-width:1.2px;" />
            </g>
        </g>
    </g>
</svg>